<svg xmlns="http://www.w3.org/2000/svg" width="32" height="32" fill="none" viewBox="0 0 32 32"><path fill="currentColor" d="M16 2.667C8.64 2.667 2.667 8.64 2.667 16S8.64 29.333 16 29.333 29.333 23.36 29.333 16 23.36 2.667 16 2.667Zm0 24C10.12 26.667 5.333 21.88 5.333 16S10.12 5.333 16 5.333 26.667 10.12 26.667 16 21.88 26.667 16 26.667m5.173-15.614-7.84 7.84-2.507-2.506a1.33 1.33 0 1 0-1.88 1.88L12.4 21.72c.52.52 1.36.52 1.88 0l8.787-8.787a1.327 1.327 0 0 0 0-1.88 1.344 1.344 0 0 0-1.894 0"/></svg>