<svg width="32" height="32" viewBox="0 0 32 32" fill="none" xmlns="http://www.w3.org/2000/svg">
<path d="M15.9998 2.66666C8.63984 2.66666 2.6665 8.63999 2.6665 16C2.6665 23.36 8.63984 29.3333 15.9998 29.3333C23.3598 29.3333 29.3332 23.36 29.3332 16C29.3332 8.63999 23.3598 2.66666 15.9998 2.66666ZM15.9998 26.6667C10.1198 26.6667 5.33317 21.88 5.33317 16C5.33317 10.12 10.1198 5.33332 15.9998 5.33332C21.8798 5.33332 26.6665 10.12 26.6665 16C26.6665 21.88 21.8798 26.6667 15.9998 26.6667ZM21.1732 11.0533L13.3332 18.8933L10.8265 16.3867C10.5772 16.1374 10.2391 15.9973 9.8865 15.9973C9.53394 15.9973 9.19581 16.1374 8.9465 16.3867C8.6972 16.636 8.55714 16.9741 8.55714 17.3267C8.55714 17.6792 8.6972 18.0174 8.9465 18.2667L12.3998 21.72C12.9198 22.24 13.7598 22.24 14.2798 21.72L23.0665 12.9333C23.1901 12.81 23.2882 12.6635 23.3551 12.5022C23.422 12.3409 23.4564 12.1679 23.4564 11.9933C23.4564 11.8187 23.422 11.6458 23.3551 11.4845C23.2882 11.3232 23.1901 11.1767 23.0665 11.0533C22.5465 10.5333 21.6932 10.5333 21.1732 11.0533Z" fill="black"/>
</svg>
