<svg width="28" height="28" viewBox="0 0 28 28" fill="none" xmlns="http://www.w3.org/2000/svg">
<path d="M12.6665 18H15.3332V20.6667H12.6665V18ZM12.6665 7.33333H15.3332V15.3333H12.6665V7.33333ZM13.9865 0.666668C6.6265 0.666668 0.666504 6.64 0.666504 14C0.666504 21.36 6.6265 27.3333 13.9865 27.3333C21.3598 27.3333 27.3332 21.36 27.3332 14C27.3332 6.64 21.3598 0.666668 13.9865 0.666668ZM13.9998 24.6667C8.1065 24.6667 3.33317 19.8933 3.33317 14C3.33317 8.10667 8.1065 3.33333 13.9998 3.33333C19.8932 3.33333 24.6665 8.10667 24.6665 14C24.6665 19.8933 19.8932 24.6667 13.9998 24.6667Z" fill="black"/>
</svg>
