<?xml version="1.0" standalone="no"?>
<!DOCTYPE svg PUBLIC "-//W3C//DTD SVG 20010904//EN"
 "http://www.w3.org/TR/2001/REC-SVG-20010904/DTD/svg10.dtd">
<svg version="1.0" xmlns="http://www.w3.org/2000/svg"
 width="512.000000pt" height="512.000000pt" viewBox="0 0 512.000000 512.000000"
 preserveAspectRatio="xMidYMid meet">

<g transform="translate(0.000000,512.000000) scale(0.100000,-0.100000)"
fill="#000000" stroke="none">
<path d="M310 2560 l0 -2560 150 0 150 0 0 935 0 935 67 34 c257 128 544 196
833 196 170 0 311 -18 470 -61 167 -45 267 -86 514 -213 122 -63 266 -132 322
-154 617 -245 1271 -198 1877 135 l117 64 0 1529 0 1529 -122 -71 c-417 -239
-708 -328 -1078 -328 -329 0 -596 72 -940 252 -284 149 -392 196 -573 248
-215 61 -368 82 -597 82 -278 -1 -515 -47 -784 -153 -54 -21 -100 -39 -102
-39 -2 0 -4 45 -4 100 l0 100 -150 0 -150 0 0 -2560z m1450 2235 c127 -18 303
-64 424 -111 49 -19 189 -86 310 -149 316 -163 488 -227 741 -275 208 -39 502
-43 700 -10 161 27 382 92 527 154 21 9 40 16 43 16 3 0 5 -533 5 -1185 l0
-1185 -67 -34 c-404 -201 -868 -250 -1302 -135 -154 41 -286 94 -471 191 -284
149 -392 196 -573 248 -215 61 -368 82 -597 82 -278 -1 -515 -47 -784 -153
-54 -21 -100 -39 -102 -39 -2 0 -4 533 -4 1185 l0 1185 68 34 c165 82 392 154
574 180 127 19 379 19 508 1z"/>
</g>
</svg>
