<svg width="32" height="32" viewBox="0 0 32 32" fill="none" xmlns="http://www.w3.org/2000/svg">
<path d="M5.33334 24C4.95556 24 4.63867 23.872 4.38267 23.616C4.12667 23.36 3.99912 23.0436 4 22.6667C4 22.2889 4.128 21.972 4.384 21.716C4.64 21.46 4.95645 21.3324 5.33334 21.3333H26.6667C27.0444 21.3333 27.3613 21.4613 27.6173 21.7173C27.8733 21.9733 28.0009 22.2898 28 22.6667C28 23.0444 27.872 23.3613 27.616 23.6173C27.36 23.8733 27.0436 24.0009 26.6667 24H5.33334ZM5.33334 17.3333C4.95556 17.3333 4.63867 17.2053 4.38267 16.9493C4.12667 16.6933 3.99912 16.3769 4 16C4 15.6222 4.128 15.3053 4.384 15.0493C4.64 14.7933 4.95645 14.6658 5.33334 14.6667H26.6667C27.0444 14.6667 27.3613 14.7947 27.6173 15.0507C27.8733 15.3067 28.0009 15.6231 28 16C28 16.3778 27.872 16.6947 27.616 16.9507C27.36 17.2067 27.0436 17.3342 26.6667 17.3333H5.33334ZM5.33334 10.6667C4.95556 10.6667 4.63867 10.5387 4.38267 10.2827C4.12667 10.0267 3.99912 9.71022 4 9.33333C4 8.95555 4.128 8.63866 4.384 8.38266C4.64 8.12666 4.95645 7.99911 5.33334 8H26.6667C27.0444 8 27.3613 8.128 27.6173 8.384C27.8733 8.64 28.0009 8.95644 28 9.33333C28 9.71111 27.872 10.028 27.616 10.284C27.36 10.54 27.0436 10.6676 26.6667 10.6667H5.33334Z" fill="#757575"/>
</svg>
